<svg xmlns="http://www.w3.org/2000/svg" width="1024" height="1024" viewBox="0 0 1024 1024">
  <defs>
    <linearGradient id="bg" x1="0" y1="0" x2="0" y2="1">
      <stop offset="0" stop-color="#F646C4"/>
      <stop offset="0.55" stop-color="#C9168F"/>
      <stop offset="1" stop-color="#720A5A"/>
    </linearGradient>
    <radialGradient id="sheen" cx="0.5" cy="0.12" r="0.85">
      <stop offset="0" stop-color="#FFFFFF" stop-opacity="0.18"/>
      <stop offset="0.55" stop-color="#FFFFFF" stop-opacity="0"/>
    </radialGradient>
    <radialGradient id="depth" cx="0.5" cy="1.05" r="0.9">
      <stop offset="0" stop-color="#3D0230" stop-opacity="0.38"/>
      <stop offset="0.7" stop-color="#3D0230" stop-opacity="0"/>
    </radialGradient>
    <clipPath id="rounded"><rect width="1024" height="1024" rx="224" ry="224"/></clipPath>
  </defs>
  <g clip-path="url(#rounded)">
    <rect width="1024" height="1024" fill="url(#bg)"/>
    <rect width="1024" height="1024" fill="url(#depth)"/>
    <rect width="1024" height="1024" fill="url(#sheen)"/>
    <g transform="translate(392.20 653.14) scale(0.67855 -0.67855)" fill="#FFFFFF">
      <path d="M-111.0 -290.0Q-148.0 -290.0 -171.0 -277.5Q-194.0 -265.0 -194.0 -240.0Q-194.0 -225.0 -179.5 -211.5Q-165.0 -198.0 -155.0 -198.0Q-147.0 -198.0 -140.0 -206.5Q-133.0 -215.0 -123.0 -226.0Q-114.0 -236.0 -101.5 -243.0Q-89.0 -250.0 -71.0 -250.0Q-46.0 -250.0 -25.0 -222.5Q-4.0 -195.0 14.0 -147.0Q32.0 -99.0 48.0 -38.0L106.0 184.0Q126.0 260.0 146.5 334.5Q167.0 409.0 191.5 476.0Q216.0 543.0 246.5 594.5Q277.0 646.0 316.5 675.5Q356.0 705.0 408.0 705.0Q466.0 705.0 497.5 685.5Q529.0 666.0 529.0 636.0Q529.0 611.0 516.5 598.0Q504.0 585.0 490.0 585.0Q480.0 585.0 471.5 596.5Q463.0 608.0 455.0 624.0Q446.0 644.0 433.0 655.0Q420.0 666.0 398.0 666.0Q358.0 666.0 329.0 638.0Q300.0 610.0 278.5 561.5Q257.0 513.0 239.5 450.0Q222.0 387.0 205.0 315.5Q188.0 244.0 168.0 172.0L108.0 -42.0Q93.0 -96.0 72.0 -141.5Q51.0 -187.0 23.5 -220.0Q-4.0 -253.0 -37.5 -271.5Q-71.0 -290.0 -111.0 -290.0Z"/>
      <path d="M209.99728393554688 336.2899169921875Q211.4967803955078 341.146728515625 213.0 346.0Q215.0 355.0 221.5 358.5Q228.0 362.0 238.0 362.0L329.0 363.0Q338.0 363.0 344.5 368.5Q351.0 374.0 354.5 381.0Q358.0 388.0 358.0 392.0Q358.0 403.0 351.0 403.0Q326.0 403.0 298.5 401.5Q271.0 400.0 241.0 400.0Q237.0 400.0 234.0 402.0Q231.0 404.0 231.0 409.0Q231.0 414.0 232.5 418.0Q234.0 422.0 236.0 429.0Q242.0 449.0 246.5 466.5Q251.0 484.0 257.0 503.0Q261.00006103515625 516.2001953125 264.84014892578125 528.1605224609375Q251.26605224609375 492.3577880859375 239.5 450.0Q224.5666046142578 396.23974609375 209.99728393554688 336.2899169921875ZM168.88414001464844 409.8974304199219Q163.44859313964844 399.4926452636719 153.0 398.0L83.0 394.0Q76.0 393.0 70.0 384.5Q64.0 376.0 64.0 368.0Q64.0 363.0 67.0 359.5Q70.0 356.0 77.0 356.0L139.0 357.0Q148.04879760742188 357.0 151.77532958984375 353.3153991699219Q160.0216064453125 382.1842956542969 168.88414001464844 409.8974304199219Z"/>
    </g>
  </g>
</svg>
