<svg xmlns="http://www.w3.org/2000/svg" width="735" height="300" viewBox="0 0 735 300"><defs></defs><g transform="translate(76.11 200.60) scale(0.24266 -0.24266)" fill="#FFFFFF"><g transform="translate(0.00 0.00)"><path d="M-111 -290Q-148 -290 -171.0 -277.5Q-194 -265 -194 -240Q-194 -225 -179.5 -211.5Q-165 -198 -155 -198Q-147 -198 -140.0 -206.5Q-133 -215 -123 -226Q-114 -236 -101.5 -243.0Q-89 -250 -71 -250Q-52 -250 -38.0 -239.0Q-24 -228 -10.5 -199.0Q3 -170 19 -115L153 339Q159 357 139 357L77 356Q70 356 67.0 359.5Q64 363 64 368Q64 376 70.0 384.5Q76 393 83 394L153 398Q167 400 172 418L180 450Q204 545 244.5 601.0Q285 657 329.5 681.5Q374 706 409 706Q453 706 478.0 686.5Q503 667 503 636Q503 611 489.5 598.0Q476 585 462 585Q455 585 449.0 596.5Q443 608 435 624Q426 644 412.0 654.5Q398 665 376 665Q348 665 328.5 652.0Q309 639 293.0 604.0Q277 569 257 503Q251 484 246.5 466.5Q242 449 236 429Q234 422 232.5 418.0Q231 414 231 409Q231 404 234.0 402.0Q237 400 241 400Q271 400 298.5 401.5Q326 403 351 403Q358 403 358 392Q358 388 354.5 381.0Q351 374 344.5 368.5Q338 363 329 363L238 362Q228 362 221.5 358.5Q215 355 213 346Q178 233 145.0 118.0Q112 3 83 -110Q73 -150 49.5 -183.0Q26 -216 -3.5 -240.0Q-33 -264 -61.5 -277.0Q-90 -290 -111 -290Z"/></g>
<g transform="translate(321.00 0.00)"><path d="M67 -14Q56 -14 44.5 -4.5Q33 5 27.0 18.0Q21 31 24 39L129 292Q136 309 138.0 321.0Q140 333 132 333Q127 333 115.5 325.0Q104 317 89.5 305.0Q75 293 60 280Q58 278 52.5 279.0Q47 280 47 283Q47 287 49.0 294.5Q51 302 59 313Q84 347 114.5 370.0Q145 393 172.5 405.5Q200 418 214 418Q219 418 225.5 412.5Q232 407 236.0 399.5Q240 392 236 385Q203 317 173.0 247.0Q143 177 113 109Q104 89 102.0 72.0Q100 55 110 55Q120 55 140.0 72.0Q160 89 185.5 116.0Q211 143 239 174Q277 217 312.5 263.0Q348 309 374.0 346.0Q400 383 408 398Q413 408 420.0 411.0Q427 414 433 414Q439 414 445.0 408.0Q451 402 454.5 394.0Q458 386 455 380L327 86Q319 67 320.0 57.0Q321 47 330 47Q343 47 364.0 61.0Q385 75 407.0 93.5Q429 112 444 127Q445 128 447 128Q450 128 453.0 125.5Q456 123 456 119Q456 117 455.0 115.0Q454 113 452.5 110.0Q451 107 448.5 103.0Q446 99 442.5 94.5Q439 90 434 84Q415 60 390.0 37.5Q365 15 336.5 0.5Q308 -14 276 -14Q263 -14 252.5 3.0Q242 20 248 33Q262 63 278.0 97.0Q294 131 306.5 160.0Q319 189 324 203Q329 215 323.0 216.0Q317 217 312 211Q260 154 220.0 111.5Q180 69 150.5 41.5Q121 14 100.5 0.0Q80 -14 67 -14Z"/></g>
<g transform="translate(810.00 0.00)"><path d="M99 -15Q81 -15 61.5 -1.5Q42 12 28.5 35.5Q15 59 15 90Q16 126 27.0 169.5Q38 213 59.0 256.0Q80 299 111.5 335.0Q143 371 184.0 392.5Q225 414 276 414Q303 414 317.0 404.5Q331 395 331 382Q331 366 321.5 349.5Q312 333 301 333Q293 333 287.5 340.0Q282 347 277 357Q271 368 262.0 377.5Q253 387 236 387Q212 387 186.0 358.0Q160 329 137.5 284.0Q115 239 101.0 189.0Q87 139 87 98Q87 65 100.0 53.0Q113 41 135 41Q167 41 186.0 53.5Q205 66 224 84Q231 91 234.5 94.0Q238 97 244 97Q252 97 252 84Q252 76 239.5 60.0Q227 44 205.5 26.5Q184 9 156.5 -3.0Q129 -15 99 -15Z"/></g>
<g transform="translate(1103.00 0.00)"><path d="M56 -18Q51 -18 47.0 -14.0Q43 -10 41.0 -4.0Q39 2 39 8Q39 23 42.5 38.0Q46 53 52 75L193 558Q198 575 203.0 595.5Q208 616 208 626Q208 636 195.5 641.0Q183 646 171 650Q164 652 158.5 654.5Q153 657 153 661Q153 665 156.0 668.5Q159 672 170 676Q178 679 192.5 684.0Q207 689 223.5 694.5Q240 700 253.5 703.5Q267 707 272 707Q277 707 283.0 706.0Q289 705 289 697Q289 689 287.5 683.0Q286 677 284 670L148 200Q146 193 148.5 193.0Q151 193 154 197Q198 262 245.0 312.5Q292 363 334.0 392.0Q376 421 406 421Q439 421 456.5 399.0Q474 377 474 348Q474 297 455.5 240.0Q437 183 407.0 131.0Q377 79 342 42Q336 36 324.0 26.5Q312 17 296.0 8.0Q280 -1 263.5 -7.5Q247 -14 233 -14Q226 -14 216.5 -8.0Q207 -2 200.5 7.0Q194 16 194 23Q194 28 198.0 35.0Q202 42 208.0 47.0Q214 52 220 52Q229 52 235.5 48.5Q242 45 247 40Q253 35 259.0 31.0Q265 27 273 27Q290 27 309.0 47.0Q328 67 345.5 100.0Q363 133 377.0 172.5Q391 212 399.5 252.0Q408 292 408 326Q408 349 398.5 361.5Q389 374 370 374Q348 374 320.5 352.5Q293 331 263.5 296.0Q234 261 206.0 221.0Q178 181 155.0 143.0Q132 105 118 78Q93 30 80.5 6.0Q68 -18 56 -18Z"/></g>
<g transform="translate(1591.00 0.00)"><path d="M26 -14Q4 -14 -12.0 -1.5Q-28 11 -28 30Q-28 53 -17.5 64.5Q-7 76 0 76Q7 76 14.5 70.5Q22 65 31 57Q42 49 55.5 41.5Q69 34 91 34Q118 34 134.0 53.5Q150 73 151 95Q151 117 143.5 142.5Q136 168 122 193Q109 217 100.5 238.5Q92 260 92 275Q92 304 107.5 329.5Q123 355 145.5 374.0Q168 393 190.0 403.5Q212 414 225 414Q238 414 251.0 406.5Q264 399 272.5 389.5Q281 380 281 373Q281 367 275.0 358.5Q269 350 261.0 343.0Q253 336 247 336Q242 336 237.0 341.0Q232 346 226 352Q220 358 211.5 363.0Q203 368 189 368Q173 368 161.0 354.5Q149 341 149 319Q149 311 154.5 294.0Q160 277 167.5 259.0Q175 241 182 227Q193 207 202.5 176.5Q212 146 212 123Q212 93 194.5 68.0Q177 43 149.0 24.5Q121 6 88.5 -4.0Q56 -14 26 -14Z"/></g>
<g transform="translate(1867.00 0.00)"><path d="M66 -14Q49 -14 38.0 -3.0Q27 8 27 20Q27 24 27.5 28.0Q28 32 30 36Q71 119 99.0 192.5Q127 266 149 321Q153 333 144 333Q139 333 124.5 327.5Q110 322 94.0 313.0Q78 304 66 295Q61 291 56.0 293.0Q51 295 51 300Q51 305 58.5 314.5Q66 324 79.5 336.0Q93 348 112.0 361.5Q131 375 153.5 388.5Q176 402 201 413Q210 417 219.0 411.0Q228 405 233.5 396.0Q239 387 237 382L115 93Q111 85 109.5 77.5Q108 70 108 64Q108 57 113.5 54.5Q119 52 124 52Q138 52 156.0 65.5Q174 79 194.5 98.5Q215 118 234 137Q236 139 238 139Q240 139 242.0 137.5Q244 136 244 134Q244 118 225.0 93.5Q206 69 177.5 44.5Q149 20 119.0 3.0Q89 -14 66 -14ZM268 513Q253 513 243.0 525.0Q233 537 233 552Q233 576 249.0 594.5Q265 613 289 613Q305 613 314.0 599.5Q323 586 323 570Q323 548 307.0 530.5Q291 513 268 513Z"/></g>
<g transform="translate(2161.00 0.00)"><path d="M45 -14Q33 -14 21.0 -7.5Q9 -1 1.5 9.0Q-6 19 -6 30Q-6 66 18.0 113.5Q42 161 85.0 213.5Q128 266 184 315Q238 362 272.0 385.5Q306 409 322 409Q338 409 350 395Q364 377 362.5 378.5Q361 380 362 380Q364 380 365.5 381.5Q367 383 368 386Q382 410 385.0 415.0Q388 420 385 416Q391 426 397 426Q406 426 415.0 423.0Q424 420 429.5 415.0Q435 410 435 405Q435 400 428 380L316 83Q303 49 329 49Q347 49 372.5 66.5Q398 84 417 109Q419 111 421.5 112.5Q424 114 426 114Q430 114 431.5 111.5Q433 109 433 103Q433 96 419.0 75.5Q405 55 390 40Q362 14 333.5 0.0Q305 -14 281 -14Q271 -14 261.0 -8.0Q251 -2 244.5 7.0Q238 16 238 25Q238 36 244 48Q240 39 243.5 48.0Q247 57 255.5 76.0Q264 95 274.0 116.0Q284 137 291 153Q296 164 295.5 169.5Q295 175 289 168Q228 100 184.5 60.0Q141 20 108.0 3.0Q75 -14 45 -14ZM101 49Q123 49 166.5 85.5Q210 122 265 187Q303 231 325.0 268.0Q347 305 347 323Q347 331 334 342Q328 347 321.0 350.0Q314 353 309 353Q291 353 259.5 335.0Q228 317 202 292Q169 260 139.0 220.0Q109 180 90.5 143.0Q72 106 72 83Q72 68 80.0 58.5Q88 49 101 49Z"/></g></g></svg>